HIERARCHY
ROOT Hips
{
 OFFSET 0.000000 0.000000 0.000000
 CHANNELS 6 Xposition Yposition Zposition Yrotation Xrotation Zrotation
 JOINT Chest
 {
  OFFSET 0.000000 9.581000 -0.001100
  CHANNELS 3 Yrotation Xrotation Zrotation
  JOINT Chest2
  {
   OFFSET 0.000000 9.561100 0.002200
   CHANNELS 3 Yrotation Xrotation Zrotation
   JOINT Chest3
   {
    OFFSET 0.000000 9.521100 0.000000
    CHANNELS 3 Yrotation Xrotation Zrotation
    JOINT Chest4
    {
     OFFSET 0.000000 9.511400 0.000000
     CHANNELS 3 Yrotation Xrotation Zrotation
     JOINT Neck
     {
      OFFSET 0.000000 14.375100 0.000000
      CHANNELS 3 Yrotation Xrotation Zrotation
      JOINT Head
      {
       OFFSET 0.000000 8.901200 0.004600
       CHANNELS 3 Yrotation Xrotation Zrotation
       End Site
       {
        OFFSET 0.000000 16.962200 0.002400
       }
      }
     }
     JOINT RightCollar
     {
      OFFSET -2.920100 9.518800 0.000000
      CHANNELS 3 Yrotation Xrotation Zrotation
      JOINT RightShoulder
      {
       OFFSET -13.664500 0.000000 0.000000
       CHANNELS 3 Yrotation Xrotation Zrotation
       JOINT RightElbow
       {
        OFFSET 0.000000 -29.999200 0.000000
        CHANNELS 3 Yrotation Xrotation Zrotation
        JOINT RightWrist
        {
         OFFSET 0.000000 -24.253600 0.000000
         CHANNELS 3 Yrotation Xrotation Zrotation
         End Site
         {
          OFFSET 0.000000 -17.918900 0.000000
         }
        }
       }
      }
     }
     JOINT LeftCollar
     {
      OFFSET 2.920100 9.518800 0.000000
      CHANNELS 3 Yrotation Xrotation Zrotation
      JOINT LeftShoulder
      {
       OFFSET 13.664500 0.000000 0.000000
       CHANNELS 3 Yrotation Xrotation Zrotation
       JOINT LeftElbow
       {
        OFFSET 0.000000 -29.999200 0.000000
        CHANNELS 3 Yrotation Xrotation Zrotation
        JOINT LeftWrist
        {
         OFFSET 0.000000 -24.253600 0.000000
         CHANNELS 3 Yrotation Xrotation Zrotation
         End Site
         {
          OFFSET 0.000000 -17.918900 0.000000
         }
        }
       }
      }
     }
    }
   }
  }
 }
 JOINT RightHip
 {
  OFFSET -7.797300 0.005300 0.000500
  CHANNELS 3 Yrotation Xrotation Zrotation
  JOINT RightKnee
  {
   OFFSET 0.000000 -40.663400 -0.000500
   CHANNELS 3 Yrotation Xrotation Zrotation
   JOINT RightAnkle
   {
    OFFSET 0.000000 -39.523700 -0.000900
    CHANNELS 3 Yrotation Xrotation Zrotation
    JOINT RightToe
    {
     OFFSET 0.000000 -6.418000 14.485300
     CHANNELS 3 Yrotation Xrotation Zrotation
     End Site
     {
      OFFSET 0.000000 -1.465200 6.326400
     }
    }
   }
  }
 }
 JOINT LeftHip
 {
  OFFSET 7.797300 0.005300 0.000500
  CHANNELS 3 Yrotation Xrotation Zrotation
  JOINT LeftKnee
  {
   OFFSET 0.000000 -40.663400 -0.000500
   CHANNELS 3 Yrotation Xrotation Zrotation
   JOINT LeftAnkle
   {
    OFFSET 0.000000 -39.523700 -0.000900
    CHANNELS 3 Yrotation Xrotation Zrotation
    JOINT LeftToe
    {
     OFFSET 0.000000 -6.418000 14.485300
     CHANNELS 3 Yrotation Xrotation Zrotation
     End Site
     {
      OFFSET 0.000000 -1.465200 6.326400
     }
    }
   }
  }
 }
}
MOTION
Frames: 12
Frame Time: 0.008333
-9.728486 126.506638 4.551069 169.202529 -30.197008 -2.408523 1.467561 20.229442 1.577373 0.136462 2.569271 0.169412 0.250506 4.185671 0.278709 1.213013 17.390773 1.312646 3.973743 17.728268 -1.564552 4.601028 -6.953818 -2.582246 -2.605867 -0.656683 0.951948 -31.922018 -16.751956 -15.830642 -106.970678 -21.000255 102.254600 -25.942366 -8.920562 -8.312877 -3.947727 -1.127550 3.657304 33.391639 -16.596152 7.954626 96.074423 -34.220236 -96.019176 29.838939 -26.340999 3.553272 2.308840 -52.596559 3.762038 -92.983357 83.179180 -92.876425 10.440998 -24.240711 2.620433 -0.000837 -0.002499 -0.000371 -8.803536 -46.041816 -0.743333 58.108549 82.847356 50.851526 2.679006 -9.159465 2.449401 -0.000514 -0.002287 -0.000228
-9.728494 126.506141 4.549095 169.200374 -30.181089 -2.411190 1.454948 20.230836 1.577212 0.138544 2.563566 0.169684 0.248226 4.183535 0.278743 1.219498 17.384051 1.310235 3.971378 17.732047 -1.564248 4.601120 -6.945989 -2.583126 -2.600555 -0.660593 0.946664 -31.911245 -16.785382 -15.846257 -106.976092 -20.996783 102.256756 -25.931021 -8.957969 -8.360786 -3.985506 -1.116920 3.658349 33.406027 -16.625827 7.974077 96.086902 -34.341947 -96.048324 29.801249 -26.303595 3.541848 2.306820 -52.607801 3.760039 -92.949283 83.186082 -92.836154 10.442934 -24.239059 2.615955 0.001060 -0.000460 0.000470 -8.807579 -46.057182 -0.739667 58.126983 82.845514 50.871410 2.677853 -9.158235 2.449580 -0.001500 -0.002914 -0.000664
-9.728253 126.506464 4.545881 169.198434 -30.174454 -2.414233 1.439137 20.247717 1.577447 0.147674 2.551065 0.167811 0.246236 4.181726 0.278875 1.207242 17.378955 1.310964 3.982058 17.734360 -1.571194 4.606030 -6.946292 -2.587323 -2.586643 -0.667905 0.929544 -31.904520 -16.795333 -15.853542 -106.973741 -20.979449 102.269516 -25.957166 -9.032628 -8.404507 -3.987206 -1.112890 3.651608 33.395849 -16.651946 7.999550 96.092713 -34.467581 -96.068075 29.760873 -26.270402 3.529979 2.302366 -52.611619 3.763196 -92.937522 83.189232 -92.819343 10.438348 -24.234453 2.611716 0.002180 -0.000392 0.000966 -8.811135 -46.062728 -0.735138 58.158100 82.846865 50.903719 2.676439 -9.161130 2.448653 0.000021 -0.004439 0.000009
-9.728665 126.506179 4.543680 169.203028 -30.160311 -2.418106 1.428191 20.247345 1.574865 0.146921 2.550103 0.168130 0.249298 4.174192 0.280019 1.180527 17.388904 1.313717 3.987533 17.741114 -1.574524 4.622285 -6.950800 -2.602428 -2.572578 -0.690614 0.906809 -31.890748 -16.797455 -15.863955 -106.964263 -20.963157 102.261293 -25.982957 -9.066307 -8.421772 -3.981067 -1.117018 3.643541 33.355448 -16.692558 8.054137 96.105306 -34.576006 -96.055852 29.722404 -26.240534 3.516989 2.293402 -52.622204 3.762670 -92.935866 83.195476 -92.813661 10.429101 -24.232475 2.608108 0.001793 0.000645 0.000795 -8.813022 -46.076683 -0.741332 58.204772 82.844077 50.958407 2.676605 -9.161358 2.445308 0.000722 -0.004075 0.000320
-9.728398 126.504343 4.544521 169.198339 -30.127366 -2.425015 1.427978 20.229032 1.578537 0.146688 2.549371 0.168293 0.251626 4.165959 0.282941 1.179082 17.388041 1.313668 3.982905 17.747354 -1.571328 4.610880 -6.938253 -2.588782 -2.577394 -0.700671 0.896469 -31.879920 -16.802068 -15.878387 -106.948604 -20.848760 102.300210 -25.979169 -9.126628 -8.506907 -4.020721 -1.093841 3.647386 33.330253 -16.739343 8.103209 96.123884 -34.680027 -96.041815 29.692659 -26.210982 3.497804 2.279651 -52.654138 3.776299 -92.930430 83.201601 -92.808253 10.425452 -24.231620 2.605648 0.000066 0.001645 0.000029 -8.809558 -46.107516 -0.738409 58.206515 82.838659 50.971386 2.680175 -9.157846 2.446032 -0.002281 -0.001155 -0.001011
-9.728307 126.504411 4.541954 169.195518 -30.117590 -2.428256 1.429858 20.234937 1.578866 0.146779 2.548887 0.168264 0.245595 4.163237 0.283085 1.183314 17.380953 1.315137 3.979634 17.753272 -1.567271 4.612644 -6.944558 -2.589361 -2.578453 -0.708809 0.890961 -31.873905 -16.810639 -15.896264 -106.923971 -20.720609 102.308294 -26.008953 -9.168602 -8.575988 -4.104193 -1.043390 3.656423 33.279717 -16.810320 8.190923 96.189758 -34.743119 -96.000151 29.670843 -26.179172 3.470690 2.271733 -52.661531 3.789172 -92.919532 83.202981 -92.796523 10.405119 -24.232702 2.606171 -0.001382 0.002168 -0.000612 -8.801863 -46.114183 -0.741168 58.219404 82.834619 50.997191 2.675472 -9.156796 2.436776 0.000508 -0.000813 0.000225
-9.728121 126.504428 4.539490 169.193375 -30.107559 -2.432572 1.434695 20.240676 1.579854 0.147135 2.548622 0.168309 0.242300 4.162398 0.284599 1.188543 17.394182 1.311208 3.972971 17.736127 -1.558022 4.613164 -6.951960 -2.588059 -2.587665 -0.739706 0.894084 -31.872076 -16.818269 -15.913115 -106.886482 -20.563374 102.300698 -26.040542 -9.179709 -8.620146 -4.149798 -1.041240 3.667916 33.214928 -16.850547 8.264303 96.224491 -34.813703 -95.980547 29.653536 -26.143508 3.436921 2.255097 -52.673380 3.805429 -92.956462 83.207666 -92.837351 10.408846 -24.237656 2.602220 0.001766 -0.001241 0.000783 -8.794330 -46.121137 -0.742463 58.216211 82.835750 51.007262 2.673516 -9.157855 2.429864 0.003867 -0.000767 0.001713
-9.728427 126.503787 4.538026 169.193621 -30.090178 -2.436058 1.434387 20.238981 1.576497 0.147343 2.548453 0.168372 0.248089 4.162725 0.287001 1.183779 17.392874 1.309593 3.972197 17.726928 -1.552470 4.596402 -6.950724 -2.573996 -2.597545 -0.757388 0.883324 -31.871404 -16.817719 -15.917297 -106.834852 -20.346474 102.284069 -26.087495 -9.154589 -8.637198 -4.188096 -1.023213 3.673167 33.215442 -16.883132 8.284580 96.203000 -34.904801 -95.986089 29.641088 -26.100823 3.398660 2.241909 -52.692516 3.811779 -92.996853 83.215233 -92.877356 10.406048 -24.243447 2.595674 0.001491 -0.002771 0.000661 -8.786465 -46.134830 -0.745765 58.177771 82.831692 50.978950 2.672420 -9.154533 2.428757 0.005311 -0.000606 0.002353
-9.727231 126.503416 4.536427 169.194984 -30.075877 -2.448118 1.435318 20.232389 1.584593 0.145030 2.555278 0.167197 0.245268 4.177298 0.279717 1.188252 17.374635 1.316371 3.973846 17.721145 -1.550013 4.582902 -6.949578 -2.560603 -2.606240 -0.768325 0.871613 -31.868002 -16.816787 -15.918512 -106.766181 -20.055710 102.257568 -26.149430 -9.078906 -8.611492 -4.208915 -1.009921 3.674813 33.198922 -16.910447 8.309506 96.176750 -34.988453 -95.986643 29.628413 -26.051628 3.361374 2.220218 -52.707423 3.827449 -93.045138 83.221921 -92.923054 10.436794 -24.254899 2.585072 0.010506 -0.004328 0.004655 -8.786693 -46.143673 -0.738594 58.138286 82.830335 50.948072 2.673706 -9.153809 2.433360 0.004645 0.000567 0.002058
-9.726999 126.502749 4.534940 169.194554 -30.059253 -2.452632 1.434082 20.223855 1.586274 0.144557 2.556988 0.167896 0.245821 4.174221 0.279842 1.188333 17.371766 1.316066 3.964035 17.729642 -1.544528 4.567441 -6.951428 -2.543706 -2.623536 -0.770228 0.857522 -31.866734 -16.812649 -15.915949 -106.669406 -19.678011 102.224930 -26.218053 -8.955747 -8.542681 -4.214484 -1.005804 3.674845 33.057629 -16.943698 8.415982 96.215170 -35.032317 -95.936333 29.610423 -25.997421 3.328560 2.207821 -52.725083 3.835151 -93.056477 83.220829 -92.933349 10.444325 -24.264081 2.580768 0.013684 -0.005139 0.006063 -8.783117 -46.156153 -0.736117 58.097536 82.829432 50.906797 2.676261 -9.153682 2.443523 0.001868 0.000538 0.000827
-9.727889 126.502064 4.532997 169.191672 -30.043653 -2.447358 1.421823 20.234262 1.576617 0.156229 2.534221 0.168507 0.244791 4.176863 0.279843 1.184843 17.376589 1.317169 3.959065 17.726929 -1.542230 4.555120 -6.956947 -2.533749 -2.631871 -0.778208 0.839547 -31.873303 -16.806823 -15.907349 -106.545157 -19.211867 102.183993 -26.287953 -8.795252 -8.442852 -4.232352 -0.985770 3.670519 32.991187 -16.985928 8.473615 96.220175 -35.112989 -95.904198 29.585694 -25.937722 3.305955 2.175732 -52.741244 3.840160 -93.073338 83.233794 -92.962280 10.420563 -24.279838 2.575774 0.000932 -0.008795 0.000413 -8.776144 -46.170311 -0.741898 58.082481 82.826677 50.892120 2.674040 -9.151299 2.446023 0.003492 -0.001283 0.001547
-9.727155 126.500467 4.532981 169.181280 -30.016891 -2.448442 1.423970 20.223510 1.581985 0.153398 2.530447 0.165760 0.236619 4.191802 0.284296 1.187087 17.361154 1.312670 3.945268 17.727974 -1.529087 4.561571 -6.968959 -2.545725 -2.649583 -0.779298 0.799592 -31.857441 -16.797629 -15.872823 -106.403200 -18.667791 102.132246 -26.352846 -8.611802 -8.332874 -4.244949 -0.935052 3.674540 32.968166 -17.043680 8.481008 96.213557 -35.236623 -95.878580 29.550195 -25.878619 3.305021 2.163689 -52.769940 3.849262 -93.067942 83.239444 -92.957110 10.416857 -24.285390 2.572301 0.000287 -0.007649 0.000127 -8.758558 -46.193521 -0.743374 58.056285 82.823760 50.873944 2.677830 -9.154707 2.450943 0.000936 -0.002392 0.000415
